<mxfile host="app.diagrams.net" modified="2023-12-29T07:28:43.361Z" agent="Mozilla/5.0 (Windows NT 10.0; Win64; x64) AppleWebKit/537.36 (KHTML, like Gecko) Chrome/120.0.0.0 Safari/537.36" version="22.1.15" etag="i5sd2FM8AXlC-WTu6H0B" type="github">
  <diagram name="페이지-1" id="CtYX7nIs6zxTS9c96R66">
    <mxGraphModel>
      <root>
        <mxCell id="0" />
        <mxCell id="1" parent="0" />
      </root>
    </mxGraphModel>
  </diagram>
</mxfile>
